<svg xmlns="http://www.w3.org/2000/svg" xmlns:xlink="http://www.w3.org/1999/xlink" contentStyleType="text/css" height="768px" preserveAspectRatio="none" style="width:724px;height:768px;" version="1.1" viewBox="0 0 724 768" width="724px" zoomAndPan="magnify"><defs/><g><!--cluster EbiosRM.Api--><g id="cluster_EbiosRM.Api"><path d="M7.5,138 L107.519,138 A2.25,2.25 0 0 1 109.019,139.5 L116.019,165.1328 L588.5,165.1328 A1.5,1.5 0 0 1 590,166.6328 L590,759.5 A1.5,1.5 0 0 1 588.5,761 L7.5,761 A1.5,1.5 0 0 1 6,759.5 L6,139.5 A1.5,1.5 0 0 1 7.5,138 " fill="#F7F9FA" style="stroke:#D7DCE2;stroke-width:1.0;"/><line style="stroke:#D7DCE2;stroke-width:1.0;" x1="6" x2="116.019" y1="165.1328" y2="165.1328"/><text fill="#1B3B4F" font-family="sans-serif" font-size="13" font-weight="bold" lengthAdjust="spacing" textLength="91.019" x="13" y="155.0669">EbiosRM.Api</text></g><!--cluster PRES--><g id="cluster_PRES"><rect fill="#FFFFFF" height="246" rx="1.5" ry="1.5" style="stroke:#2C5875;stroke-width:1.1;" width="174" x="30" y="186"/><rect fill="#FFFFFF" height="10" style="stroke:#2C5875;stroke-width:1.1;" width="15" x="184" y="191"/><rect fill="#FFFFFF" height="2" style="stroke:#2C5875;stroke-width:1.1;" width="4" x="182" y="193"/><rect fill="#FFFFFF" height="2" style="stroke:#2C5875;stroke-width:1.1;" width="4" x="182" y="197"/><text fill="#171B22" font-family="sans-serif" font-size="12" font-weight="bold" lengthAdjust="spacing" textLength="87.1465" x="73.4268" y="213.1387">Pr&#233;sentation</text></g><!--cluster APP--><g id="cluster_APP"><rect fill="#FFFFFF" height="118" rx="1.5" ry="1.5" style="stroke:#2C5875;stroke-width:1.1;" width="150" x="228" y="321"/><rect fill="#FFFFFF" height="10" style="stroke:#2C5875;stroke-width:1.1;" width="15" x="358" y="326"/><rect fill="#FFFFFF" height="2" style="stroke:#2C5875;stroke-width:1.1;" width="4" x="356" y="328"/><rect fill="#FFFFFF" height="2" style="stroke:#2C5875;stroke-width:1.1;" width="4" x="356" y="332"/><text fill="#171B22" font-family="sans-serif" font-size="12" font-weight="bold" lengthAdjust="spacing" textLength="76.541" x="264.7295" y="348.1387">Application</text></g><!--cluster CORE--><g id="cluster_CORE"><rect fill="#FFFFFF" height="245" rx="1.5" ry="1.5" style="stroke:#2C5875;stroke-width:1.1;" width="175" x="39" y="492"/><rect fill="#FFFFFF" height="10" style="stroke:#2C5875;stroke-width:1.1;" width="15" x="194" y="497"/><rect fill="#FFFFFF" height="2" style="stroke:#2C5875;stroke-width:1.1;" width="4" x="192" y="499"/><rect fill="#FFFFFF" height="2" style="stroke:#2C5875;stroke-width:1.1;" width="4" x="192" y="503"/><text fill="#171B22" font-family="sans-serif" font-size="12" font-weight="bold" lengthAdjust="spacing" textLength="153.2285" x="49.8857" y="519.1387">Core Engine &#8212; Domain</text></g><!--cluster INFRA--><g id="cluster_INFRA"><rect fill="#FFFFFF" height="118" rx="1.5" ry="1.5" style="stroke:#2C5875;stroke-width:1.1;" width="152" x="238" y="492"/><rect fill="#FFFFFF" height="10" style="stroke:#2C5875;stroke-width:1.1;" width="15" x="370" y="497"/><rect fill="#FFFFFF" height="2" style="stroke:#2C5875;stroke-width:1.1;" width="4" x="368" y="499"/><rect fill="#FFFFFF" height="2" style="stroke:#2C5875;stroke-width:1.1;" width="4" x="368" y="503"/><text fill="#171B22" font-family="sans-serif" font-size="12" font-weight="bold" lengthAdjust="spacing" textLength="95.0332" x="266.4834" y="519.1387">Infrastructure</text></g><!--cluster REP--><g id="cluster_REP"><rect fill="#FFFFFF" height="118" rx="1.5" ry="1.5" style="stroke:#2C5875;stroke-width:1.1;" width="164" x="402" y="321"/><rect fill="#FFFFFF" height="10" style="stroke:#2C5875;stroke-width:1.1;" width="15" x="546" y="326"/><rect fill="#FFFFFF" height="2" style="stroke:#2C5875;stroke-width:1.1;" width="4" x="544" y="328"/><rect fill="#FFFFFF" height="2" style="stroke:#2C5875;stroke-width:1.1;" width="4" x="544" y="332"/><text fill="#171B22" font-family="sans-serif" font-size="12" font-weight="bold" lengthAdjust="spacing" textLength="67.1133" x="450.4434" y="348.1387">Reporting</text></g><!--cluster IA--><g id="cluster_IA"><rect fill="#FFFFFF" height="104" rx="1.5" ry="1.5" style="stroke:#2C5875;stroke-width:1.1;" width="152" x="414" y="499"/><rect fill="#FFFFFF" height="10" style="stroke:#2C5875;stroke-width:1.1;" width="15" x="546" y="504"/><rect fill="#FFFFFF" height="2" style="stroke:#2C5875;stroke-width:1.1;" width="4" x="544" y="506"/><rect fill="#FFFFFF" height="2" style="stroke:#2C5875;stroke-width:1.1;" width="4" x="544" y="510"/><text fill="#171B22" font-family="sans-serif" font-size="12" font-weight="bold" lengthAdjust="spacing" textLength="90.3867" x="444.8066" y="526.1387">Assistance IA</text></g><!--entity EP--><g id="elem_EP"><rect fill="#FFFFFF" height="49.9688" rx="1.5" ry="1.5" style="stroke:#2C5875;stroke-width:1.1;" width="105.6602" x="82" y="224"/><rect fill="#FFFFFF" height="10" style="stroke:#2C5875;stroke-width:1.1;" width="15" x="167.6602" y="229"/><rect fill="#FFFFFF" height="2" style="stroke:#2C5875;stroke-width:1.1;" width="4" x="165.6602" y="231"/><rect fill="#FFFFFF" height="2" style="stroke:#2C5875;stroke-width:1.1;" width="4" x="165.6602" y="235"/><text fill="#171B22" font-family="sans-serif" font-size="12" lengthAdjust="spacing" textLength="59.6602" x="100" y="258.1387">Endpoints</text></g><!--entity AUTHM--><g id="elem_AUTHM"><rect fill="#FFFFFF" height="49.9688" rx="1.5" ry="1.5" style="stroke:#2C5875;stroke-width:1.1;" width="141.6484" x="46" y="366"/><rect fill="#FFFFFF" height="10" style="stroke:#2C5875;stroke-width:1.1;" width="15" x="167.6484" y="371"/><rect fill="#FFFFFF" height="2" style="stroke:#2C5875;stroke-width:1.1;" width="4" x="165.6484" y="373"/><rect fill="#FFFFFF" height="2" style="stroke:#2C5875;stroke-width:1.1;" width="4" x="165.6484" y="377"/><text fill="#171B22" font-family="sans-serif" font-size="12" lengthAdjust="spacing" textLength="95.6484" x="64" y="400.1387">Authentification</text></g><!--entity HDL--><g id="elem_HDL"><rect fill="#FFFFFF" height="63.9375" rx="1.5" ry="1.5" style="stroke:#2C5875;stroke-width:1.1;" width="118.3164" x="244" y="359"/><rect fill="#FFFFFF" height="10" style="stroke:#2C5875;stroke-width:1.1;" width="15" x="342.3164" y="364"/><rect fill="#FFFFFF" height="2" style="stroke:#2C5875;stroke-width:1.1;" width="4" x="340.3164" y="366"/><rect fill="#FFFFFF" height="2" style="stroke:#2C5875;stroke-width:1.1;" width="4" x="340.3164" y="370"/><text fill="#171B22" font-family="sans-serif" font-size="12" lengthAdjust="spacing" textLength="72.3164" x="262" y="393.1387">Handlers de</text><text fill="#171B22" font-family="sans-serif" font-size="12" lengthAdjust="spacing" textLength="71.1445" x="262" y="407.1074">cas d'usage</text></g><!--entity AGG--><g id="elem_AGG"><rect fill="#FFFFFF" height="63.9375" rx="1.5" ry="1.5" style="stroke:#2C5875;stroke-width:1.1;" width="133.9844" x="64" y="530"/><rect fill="#FFFFFF" height="10" style="stroke:#2C5875;stroke-width:1.1;" width="15" x="177.9844" y="535"/><rect fill="#FFFFFF" height="2" style="stroke:#2C5875;stroke-width:1.1;" width="4" x="175.9844" y="537"/><rect fill="#FFFFFF" height="2" style="stroke:#2C5875;stroke-width:1.1;" width="4" x="175.9844" y="541"/><text fill="#171B22" font-family="sans-serif" font-size="12" lengthAdjust="spacing" textLength="34.8926" x="82" y="564.1387">Etude</text><text fill="#171B22" font-family="sans-serif" font-size="12" lengthAdjust="spacing" textLength="87.9844" x="82" y="578.1074">agr&#233;gat racine</text></g><!--entity DS--><g id="elem_DS"><rect fill="#FFFFFF" height="63.9375" rx="1.5" ry="1.5" style="stroke:#2C5875;stroke-width:1.1;" width="115.416" x="73.5" y="657"/><rect fill="#FFFFFF" height="10" style="stroke:#2C5875;stroke-width:1.1;" width="15" x="168.916" y="662"/><rect fill="#FFFFFF" height="2" style="stroke:#2C5875;stroke-width:1.1;" width="4" x="166.916" y="664"/><rect fill="#FFFFFF" height="2" style="stroke:#2C5875;stroke-width:1.1;" width="4" x="166.916" y="668"/><text fill="#171B22" font-family="sans-serif" font-size="12" lengthAdjust="spacing" textLength="69.416" x="91.5" y="691.1387">Services de</text><text fill="#171B22" font-family="sans-serif" font-size="12" lengthAdjust="spacing" textLength="52.3242" x="91.5" y="705.1074">domaine</text></g><!--entity REPO--><g id="elem_REPO"><rect fill="#FFFFFF" height="63.9375" rx="1.5" ry="1.5" style="stroke:#2C5875;stroke-width:1.1;" width="120.2148" x="254" y="530"/><rect fill="#FFFFFF" height="10" style="stroke:#2C5875;stroke-width:1.1;" width="15" x="354.2148" y="535"/><rect fill="#FFFFFF" height="2" style="stroke:#2C5875;stroke-width:1.1;" width="4" x="352.2148" y="537"/><rect fill="#FFFFFF" height="2" style="stroke:#2C5875;stroke-width:1.1;" width="4" x="352.2148" y="541"/><text fill="#171B22" font-family="sans-serif" font-size="12" lengthAdjust="spacing" textLength="74.2148" x="272" y="564.1387">Repositories</text><text fill="#171B22" font-family="sans-serif" font-size="12" lengthAdjust="spacing" textLength="46.3359" x="272" y="578.1074">EF Core</text></g><!--entity RSVC--><g id="elem_RSVC"><rect fill="#FFFFFF" height="63.9375" rx="1.5" ry="1.5" style="stroke:#2C5875;stroke-width:1.1;" width="131.7578" x="418" y="359"/><rect fill="#FFFFFF" height="10" style="stroke:#2C5875;stroke-width:1.1;" width="15" x="529.7578" y="364"/><rect fill="#FFFFFF" height="2" style="stroke:#2C5875;stroke-width:1.1;" width="4" x="527.7578" y="366"/><rect fill="#FFFFFF" height="2" style="stroke:#2C5875;stroke-width:1.1;" width="4" x="527.7578" y="370"/><text fill="#171B22" font-family="sans-serif" font-size="12" lengthAdjust="spacing" textLength="85.7578" x="436" y="393.1387">G&#233;n&#233;ration de</text><text fill="#171B22" font-family="sans-serif" font-size="12" lengthAdjust="spacing" textLength="50.7539" x="436" y="407.1074">rapports</text></g><!--entity IASVC--><g id="elem_IASVC"><rect fill="#FFFFFF" height="49.9688" rx="1.5" ry="1.5" style="stroke:#2C5875;stroke-width:1.1;" width="119.3301" x="430.5" y="537"/><rect fill="#FFFFFF" height="10" style="stroke:#2C5875;stroke-width:1.1;" width="15" x="529.8301" y="542"/><rect fill="#FFFFFF" height="2" style="stroke:#2C5875;stroke-width:1.1;" width="4" x="527.8301" y="544"/><rect fill="#FFFFFF" height="2" style="stroke:#2C5875;stroke-width:1.1;" width="4" x="527.8301" y="548"/><text fill="#171B22" font-family="sans-serif" font-size="12" lengthAdjust="spacing" textLength="73.3301" x="448.5" y="571.1387">Suggestions</text></g><!--entity FE--><g id="elem_FE"><rect fill="#FFFFFF" height="63.9375" rx="1.5" ry="1.5" style="stroke:#2C5875;stroke-width:1.1;" width="203.6113" x="33" y="7"/><rect fill="#FFFFFF" height="10" style="stroke:#2C5875;stroke-width:1.1;" width="15" x="216.6113" y="12"/><rect fill="#FFFFFF" height="2" style="stroke:#2C5875;stroke-width:1.1;" width="4" x="214.6113" y="14"/><rect fill="#FFFFFF" height="2" style="stroke:#2C5875;stroke-width:1.1;" width="4" x="214.6113" y="18"/><text fill="#171B22" font-family="sans-serif" font-size="12" lengthAdjust="spacing" textLength="80.9707" x="51" y="41.1387">Frontend SPA</text><text fill="#171B22" font-family="sans-serif" font-size="12" lengthAdjust="spacing" textLength="157.6113" x="51" y="55.1074">React + TypeScript + Vite</text></g><!--entity DB--><g id="elem_DB"><path d="M606.5,674 C606.5,664 656.9924,664 656.9924,664 C656.9924,664 707.4849,664 707.4849,674 L707.4849,704.1328 C707.4849,714.1328 656.9924,714.1328 656.9924,714.1328 C656.9924,714.1328 606.5,714.1328 606.5,704.1328 L606.5,674 " fill="#DCE6EC" style="stroke:#2C5875;stroke-width:1.1;"/><path d="M606.5,674 C606.5,684 656.9924,684 656.9924,684 C656.9924,684 707.4849,684 707.4849,674 " fill="none" style="stroke:#2C5875;stroke-width:1.1;"/><text fill="#1B3B4F" font-family="sans-serif" font-size="13" lengthAdjust="spacing" textLength="74.9849" x="619.5" y="703.0669">PostgreSQL</text></g><!--link FE to EP--><g id="link_FE_EP"><path d="M135,71.14 C135,112.85 135,179.97 135,217.8 " fill="none" id="FE-to-EP" style="stroke:#2C5875;stroke-width:1.1;"/><polygon fill="#2C5875" points="135,223.8,139,214.8,135,218.8,131,214.8,135,223.8" style="stroke:#2C5875;stroke-width:1.1;"/><text fill="#4A5568" font-family="sans-serif" font-size="12" lengthAdjust="spacing" textLength="79.7871" x="139" y="116.1387">HTTPS / JSON</text></g><!--link EP to AUTHM--><g id="link_EP_AUTHM"><path d="M131.91,274.07 C128.61,299.71 124.1864,334.1292 120.8764,359.8292 " fill="none" id="EP-to-AUTHM" style="stroke:#2C5875;stroke-width:1.1;"/><polygon fill="#2C5875" points="120.11,365.78,125.2269,357.3647,120.7487,360.821,117.2924,356.3428,120.11,365.78" style="stroke:#2C5875;stroke-width:1.1;"/></g><!--link EP to HDL--><g id="link_EP_HDL"><path d="M163.88,274.07 C192.02,297.52 230.3407,329.4489 261.0607,355.0489 " fill="none" id="EP-to-HDL" style="stroke:#2C5875;stroke-width:1.1;"/><polygon fill="#2C5875" points="265.67,358.89,261.3167,350.0555,261.8289,355.6891,256.1953,356.2012,265.67,358.89" style="stroke:#2C5875;stroke-width:1.1;"/></g><!--link HDL to AGG--><g id="link_HDL_AGG"><path d="M271.05,423.39 C240.16,453.75 197.8893,495.2743 167.0593,525.5743 " fill="none" id="HDL-to-AGG" style="stroke:#2C5875;stroke-width:1.1;"/><polygon fill="#2C5875" points="162.78,529.78,172.0027,526.3243,166.3461,526.2753,166.3951,520.6186,162.78,529.78" style="stroke:#2C5875;stroke-width:1.1;"/></g><!--link AGG to DS--><g id="link_AGG_DS"><path d="M131,594.22 C131,613.31 131,631.65 131,650.74 " fill="none" id="AGG-to-DS" style="stroke:#2C5875;stroke-width:1.1;"/><polygon fill="#2C5875" points="131,656.74,135,647.74,131,651.74,127,647.74,131,656.74" style="stroke:#2C5875;stroke-width:1.1;"/></g><!--link HDL to REPO--><g id="link_HDL_REPO"><path d="M295.25,423.21 C293.1,433.29 291.07,444.56 290,455 C287.39,480.53 292.4082,503.1661 299.4882,524.1061 " fill="none" id="HDL-to-REPO" style="stroke:#2C5875;stroke-width:1.1;"/><polygon fill="#2C5875" points="301.41,529.79,302.3166,519.983,299.8085,525.0534,294.7381,522.5453,301.41,529.79" style="stroke:#2C5875;stroke-width:1.1;"/></g><!--link REPO to DB--><g id="link_REPO_DB"><path d="M365.34,594.09 C380.65,602.57 397.7,611.27 414,618 C478.32,644.56 550.2997,663.695 600.2497,675.455 " fill="none" id="REPO-to-DB" style="stroke:#2C5875;stroke-width:1.1;"/><polygon fill="#2C5875" points="606.09,676.83,598.2462,670.8739,601.2231,675.6842,596.4128,678.661,606.09,676.83" style="stroke:#2C5875;stroke-width:1.1;"/></g><!--link EP to RSVC--><g id="link_EP_RSVC"><path d="M188.15,257.88 C238.74,266.72 316.12,283.8 378,313 C403.3,324.94 424.0787,339.4269 443.6987,355.1569 " fill="none" id="EP-to-RSVC" style="stroke:#2C5875;stroke-width:1.1;"/><polygon fill="#2C5875" points="448.38,358.91,443.8602,350.1595,444.479,355.7824,438.856,356.4012,448.38,358.91" style="stroke:#2C5875;stroke-width:1.1;"/></g><!--link RSVC to DB--><g id="link_RSVC_DB"><path d="M523.7,423.17 C534.11,432.63 544.73,443.56 553,455 C602.58,523.56 634.2843,613.7919 648.0943,658.0919 " fill="none" id="RSVC-to-DB" style="stroke:#2C5875;stroke-width:1.1;"/><polygon fill="#2C5875" points="649.88,663.82,651.0202,654.0374,648.3919,659.0466,643.3827,656.4183,649.88,663.82" style="stroke:#2C5875;stroke-width:1.1;"/></g><!--link HDL to IASVC--><g id="link_HDL_IASVC"><path d="M302.16,423.18 C303.45,441.24 308.34,462.93 323,476 C334.19,485.98 376.12,478.33 390,484 C419.42,496.01 443.221,514.9976 462.121,532.7876 " fill="none" id="HDL-to-IASVC" style="stroke:#2C5875;stroke-width:1.1;stroke-dasharray:7.0,7.0;"/><polygon fill="#2C5875" points="466.49,536.9,462.6781,527.8187,462.8492,533.473,457.1949,533.6441,466.49,536.9" style="stroke:#2C5875;stroke-width:1.1;"/><text fill="#4A5568" font-family="sans-serif" font-size="12" lengthAdjust="spacing" textLength="121.8809" x="327" y="470.1387">commande explicite</text></g><!--link IASVC to HDL--><g id="link_IASVC_HDL"><path d="M489.27,536.81 C487.15,512.33 479.87,475.26 456,455 C437.5,439.3 424.98,454.8 402,447 C384.5,441.06 371.7111,435.044 355.9411,426.044 " fill="none" id="IASVC-to-HDL" style="stroke:#2C5875;stroke-width:1.1;stroke-dasharray:7.0,7.0;"/><polygon fill="#2C5875" points="350.73,423.07,356.564,431.005,355.0726,425.5483,360.5293,424.0569,350.73,423.07" style="stroke:#2C5875;stroke-width:1.1;"/><text fill="#4A5568" font-family="sans-serif" font-size="12" lengthAdjust="spacing" textLength="65.7129" x="476" y="470.1387">suggestion</text></g><!--SRC=[RLDDRXiX5DvpYbTlkgZYxhE8DB4PsrKIqy7DoXl2l4nHR430LAsgI3r4B-5p-2OzIVd9f7N62n3mllUzx_tmJccvwri4_wJqLFNx7I7IxAtHg0DCQcTqGDq2PzLMDoXaW0-m-M6HIwTikjohW1CG7cfAY1NoING84_gWZ6zkfvLL4_X90FuZPUvuyF4aWZ8wkxA6yemwmL7TMgDqy1b3sLjxrOUlyQ0UbVn7LNtPB6yZylaqPcNjxWJ6s3ZWKkXsXyv3Yrij8wfzt_kOJlPOpc_6j3FZ4AZkb4Ruy-itpCrUg19XjcxecPn2dyX55slGYG1EoEXR92qMRz4StJSbiGXgCtV1plbOoqe_Ek63wsNeNO6jxkgc6ejeq1glWd4A_LRJ6b8QsQ6XR3rcJdWNbEu6p9XoSJpeuy7b0cUrJjZaL7hNyFlPcPvuhtmGMYAiggBtZ5ZUTntwnEjVC0FPCo6j2E91-3XmpFZGEUIVRqg1hWcfALnSNCN1WKjORZQCmqVunDTt9BuaGncLbqjgRrp543iHLpx7IW_FkJXfAuRhmJLdbxRXFJbCfrT5QWmUizd7qKB0xsaAuuSXnPH02Nm9_ZNBlm00]--></g></svg>