<svg xmlns="http://www.w3.org/2000/svg" xmlns:xlink="http://www.w3.org/1999/xlink" contentStyleType="text/css" height="339px" preserveAspectRatio="none" style="width:591px;height:339px;" version="1.1" viewBox="0 0 591 339" width="591px" zoomAndPan="magnify"><defs/><g><ellipse cx="439" cy="16" fill="#222222" rx="10" ry="10" style="stroke:#222222;stroke-width:1.0;"/><g id="NonDemarre"><rect fill="#FFFFFF" height="50" rx="1.5" ry="1.5" style="stroke:#2C5875;stroke-width:1.1;" width="109.2432" x="384.5" y="115.5"/><line style="stroke:#2C5875;stroke-width:1.1;" x1="384.5" x2="493.7432" y1="146.6328" y2="146.6328"/><text fill="#171B22" font-family="sans-serif" font-size="13" lengthAdjust="spacing" textLength="83.2432" x="397.5" y="135.5669">NonDemarre</text></g><g id="EnCours"><rect fill="#FFFFFF" height="50" rx="1.5" ry="1.5" style="stroke:#2C5875;stroke-width:1.1;" width="79.8408" x="186" y="283"/><line style="stroke:#2C5875;stroke-width:1.1;" x1="186" x2="265.8408" y1="314.1328" y2="314.1328"/><text fill="#171B22" font-family="sans-serif" font-size="13" lengthAdjust="spacing" textLength="53.8408" x="199" y="303.0669">EnCours</text></g><g id="Valide"><rect fill="#FFFFFF" height="50" rx="1.5" ry="1.5" style="stroke:#2C5875;stroke-width:1.1;" width="66.333" x="7" y="115.5"/><line style="stroke:#2C5875;stroke-width:1.1;" x1="7" x2="73.333" y1="146.6328" y2="146.6328"/><text fill="#171B22" font-family="sans-serif" font-size="13" lengthAdjust="spacing" textLength="40.333" x="20" y="135.5669">Valide</text></g><g id="elem_GMN10"><path d="M108.5,108.5 L108.5,136.5 L73.22,140.5 L108.5,144.5 L108.5,172.7188 A1.5,1.5 0 0 0 110,174.2188 L348.4409,174.2188 A1.5,1.5 0 0 0 349.9409,172.7188 L349.9409,117 L339.9409,107 L110,107 A1.5,1.5 0 0 0 108.5,108.5 " fill="#DCE6EC" style="stroke:#2C5875;stroke-width:0.5;"/><path d="M339.9409,107 L339.9409,116.25 A0.75,0.75 0 0 0 340.6909,117 L349.9409,117 L339.9409,107 " fill="#DCE6EC" style="stroke:#2C5875;stroke-width:0.5;"/><text fill="#1B3B4F" font-family="sans-serif" font-size="11" lengthAdjust="spacing" textLength="195.2822" x="117.5" y="125.2104">Chaque passage par &#171; Valid&#233; &#187; fige</text><text fill="#1B3B4F" font-family="sans-serif" font-size="11" lengthAdjust="spacing" textLength="214.4409" x="117.5" y="138.0151">une nouvelle version de snapshot pour</text><text fill="#1B3B4F" font-family="sans-serif" font-size="11" lengthAdjust="spacing" textLength="157.3999" x="117.5" y="150.8198">cet atelier. L'historique n'est</text><text fill="#1B3B4F" font-family="sans-serif" font-size="11" lengthAdjust="spacing" textLength="79.6104" x="117.5" y="163.6245">jamais &#233;cras&#233;.</text></g><!--link *start* to NonDemarre--><g id="link_*start*_NonDemarre"><path d="M439,26.21 C439,44.9 439,81.85 439,109.17 " fill="none" id="*start*-to-NonDemarre" style="stroke:#2C5875;stroke-width:1.1;"/><polygon fill="#2C5875" points="439,115.17,443,106.17,439,110.17,435,106.17,439,115.17" style="stroke:#2C5875;stroke-width:1.1;"/><text fill="#4A5568" font-family="sans-serif" font-size="12" lengthAdjust="spacing" textLength="72.3867" x="443" y="71.1387">Etude cr&#233;&#233;e</text></g><!--link NonDemarre to EnCours--><g id="link_NonDemarre_EnCours"><path d="M434.88,165.78 C429.37,190.96 417.21,229.83 392,253 C357.19,284.99 309.0986,297.1838 272.1986,302.5038 " fill="none" id="NonDemarre-to-EnCours" style="stroke:#2C5875;stroke-width:1.1;"/><polygon fill="#2C5875" points="266.26,303.36,275.7387,306.0348,271.2088,302.6465,274.5971,298.1167,266.26,303.36" style="stroke:#2C5875;stroke-width:1.1;"/><text fill="#4A5568" font-family="sans-serif" font-size="12" lengthAdjust="spacing" textLength="153.0527" x="427" y="233.1387">DemarrerAtelier(numero)</text></g><!--link EnCours to Valide--><g id="link_EnCours_Valide"><path d="M222.97,282.82 C218.81,259.54 209.12,224.85 187,204 C154.47,173.34 131.54,192.84 91,174 C85,171.21 84.0087,170.9273 78.1687,167.4073 " fill="none" id="EnCours-to-Valide" style="stroke:#2C5875;stroke-width:1.1;"/><polygon fill="#2C5875" points="73.03,164.31,78.6732,172.3818,77.3123,166.8911,82.803,165.5302,73.03,164.31" style="stroke:#2C5875;stroke-width:1.1;"/><text fill="#4A5568" font-family="sans-serif" font-size="12" lengthAdjust="spacing" textLength="137.3672" x="231.3438" y="219.1387">ValiderAtelier(numero)</text><text fill="#4A5568" font-family="sans-serif" font-size="12" lengthAdjust="spacing" textLength="160.0547" x="220" y="233.1074">(cr&#233;e une nouvelle version</text><text fill="#4A5568" font-family="sans-serif" font-size="12" lengthAdjust="spacing" textLength="78.2285" x="260.9131" y="247.0762">de snapshot)</text></g><!--link Valide to EnCours--><g id="link_Valide_EnCours"><path d="M30.03,165.89 C21.76,190.43 14.13,228.12 33,253 C51.4,277.26 128.901,292.6597 179.861,300.5697 " fill="none" id="Valide-to-EnCours" style="stroke:#2C5875;stroke-width:1.1;"/><polygon fill="#2C5875" points="185.79,301.49,177.51,296.1569,180.8492,300.7231,176.283,304.0622,185.79,301.49" style="stroke:#2C5875;stroke-width:1.1;"/><text fill="#4A5568" font-family="sans-serif" font-size="12" lengthAdjust="spacing" textLength="138.791" x="37" y="233.1387">RouvrirAtelier(numero)</text></g><!--SRC=[ROvDJiCm44RtFiN7gYrISm0MIAXqXrYmwAPbOINJPAWp3cExTueu0hlcOiHAaChFofRdUTwxOIbTgWZXn59mQftPtxvYlRx7ivT7QgqguGxRcA5IXtxeoLoDChcLZKyQHcn-rOT8ZacNabfIlpBVHAPtrd6LTqwNt-n1bbb3I48Gdyxa7E5C6jZBGNAgs2uqFgxClEfdmyluH_bFWX4V2Sfr4-6Fizm0cyQ-9q9dGx1rFXMNZsayzBXyuiXrvlxBmLKDkj4_SYL5sCbTu6dHS8XUEIjaGI6En9jjBGSCVQas37rXI2hakYy0]--></g></svg>